<svg width="1120" height="125" viewBox="0 0 1120 125" fill="none" xmlns="http://www.w3.org/2000/svg">
<path d="M238.116 99.2414V116.595H165.383V0H183.339V99.128H238.116V99.2414Z" fill="white"/>
<path d="M347.213 0C353.69 0 359.714 0.90735 365.282 2.72205C370.851 4.53675 375.738 6.91854 379.943 9.86743C384.147 12.8163 387.443 15.9921 389.83 19.2812L378.465 31.1902C374.147 27.1071 369.373 23.7045 364.146 20.9825C358.918 18.3738 353.236 17.0128 347.213 17.0128C339.485 17.0128 332.552 18.8275 326.302 22.3435C320.051 25.9729 315.164 30.7365 311.528 36.8611C307.891 42.9857 306.187 49.9043 306.187 57.7302C306.187 65.4426 308.118 72.4746 311.869 78.7126C315.619 84.9507 320.733 89.9411 327.097 93.6839C333.461 97.4267 340.394 99.2414 347.894 99.2414C353.349 99.2414 358.463 98.2207 363.237 96.0657C368.01 93.9107 371.874 91.0753 374.942 87.3325C377.897 83.7031 379.374 79.3931 379.374 74.6296C379.374 74.0625 379.374 73.7222 379.374 73.6088H346.985V56.4825H397.444C397.671 58.0704 397.899 59.7717 398.012 61.3596C398.126 62.9474 398.239 64.6487 398.239 66.2366C398.239 72.2478 397.33 78.0321 395.512 83.8165C393.694 89.6008 390.966 94.5913 387.102 98.7878C382.784 104.232 377.101 108.542 370.283 111.718C363.35 114.893 355.736 116.481 347.326 116.481C339.03 116.481 331.302 115.007 324.142 112.058C316.983 109.109 310.619 104.912 305.277 99.5817C299.822 94.251 295.617 88.013 292.663 80.981C289.708 73.8356 288.23 66.2366 288.23 57.957C288.23 49.6774 289.708 42.0784 292.663 35.0464C295.617 28.0144 299.822 21.8898 305.164 16.6726C310.505 11.4553 316.869 7.37222 324.029 4.42333C331.189 1.47444 338.916 0 347.213 0Z" fill="white"/>
<path d="M637.242 116.481V17.3531H604.512V0H688.837V17.3531H655.198V116.595H637.242V116.481Z" fill="white"/>
<path d="M758.957 116.481V0H777.027V116.481H758.957Z" fill="white"/>
<path d="M1010.12 0H1083.65V17.3531H1028.19V48.0896H1074.56V65.4426H1028.19V99.2414H1083.76V116.595H1010.23V0H1010.12Z" fill="white"/>
<path d="M910.571 116.481L957.62 0H937.846L890.797 116.481H910.571Z" fill="white"/>
<path d="M66.1845 0L113.234 116.481H93.4595L46.4102 0H66.1845Z" fill="white"/>
<path d="M24.1372 58.2812L0.839844 116.465H21.2961L43.2297 58.2812H24.1372Z" fill="#E2A41F"/>
<path d="M505.199 16.786C528.042 16.786 546.68 35.3867 546.68 58.1838C546.68 80.981 528.042 99.5817 505.199 99.5817C482.356 99.5817 463.718 80.981 463.718 58.1838C463.718 35.3867 482.356 16.786 505.199 16.786ZM505.199 0C473.037 0 446.785 26.0863 446.785 58.2973C446.785 90.3948 472.924 116.595 505.199 116.595C537.361 116.595 563.613 90.5082 563.613 58.2973C563.613 26.1997 537.361 0 505.199 0Z" fill="white"/>
<path d="M887.62 58.2973L865.8 0H845.23L868.528 58.2973H887.62Z" fill="#E2A41F"/>
<path d="M472.695 58.2812C472.695 76.2014 487.356 90.8325 505.312 90.8325V77.5625C494.629 77.5625 485.992 68.9426 485.992 58.2812H472.695Z" fill="#E2A41F"/>
<path d="M537.808 58.2934C537.808 40.3732 523.147 25.7422 505.191 25.7422V39.0122C515.874 39.0122 524.511 47.632 524.511 58.2934H537.808Z" fill="#E2A41F"/>
<path d="M1119.1 116.26C1119.1 121.137 1115.24 124.994 1110.24 124.994C1105.35 124.994 1101.38 121.137 1101.38 116.26C1101.38 111.497 1105.35 107.641 1110.24 107.641C1115.24 107.641 1119.1 111.497 1119.1 116.26ZM1103.65 116.26C1103.65 120.117 1106.49 123.179 1110.35 123.179C1114.1 123.179 1116.94 120.117 1116.94 116.374C1116.94 112.518 1114.1 109.455 1110.35 109.455C1106.49 109.455 1103.65 112.518 1103.65 116.26ZM1108.88 120.797H1106.83V112.177C1107.63 112.064 1108.76 111.951 1110.13 111.951C1111.72 111.951 1112.51 112.177 1113.08 112.631C1113.54 112.971 1113.88 113.652 1113.88 114.559C1113.88 115.467 1113.19 116.26 1112.06 116.601V116.714C1112.85 117.054 1113.42 117.621 1113.65 118.756C1113.88 120.117 1114.1 120.57 1114.33 120.911H1112.28C1112.06 120.57 1111.83 119.776 1111.6 118.869C1111.49 117.962 1110.92 117.508 1109.78 117.508H1108.88V120.797ZM1108.99 115.92H1109.9C1111.03 115.92 1111.94 115.58 1111.94 114.673C1111.94 113.879 1111.38 113.312 1110.13 113.312C1109.56 113.312 1109.22 113.312 1108.99 113.425V115.92V115.92Z" fill="white"/>
</svg>
