<svg width="1107" height="246" viewBox="0 0 1107 246" fill="none" xmlns="http://www.w3.org/2000/svg">
<path d="M206.074 61.5213L103.037 0L0 61.5213L51.5844 92.282L103.037 61.5213L154.621 92.282L206.074 61.5213Z" fill="#532454"/>
<path d="M103.037 246.001V184.48L51.5844 153.719V92.1981L0 61.4375V184.48L103.037 246.001Z" fill="#89467F"/>
<path d="M154.623 92.1981V153.719L103.039 184.48V246.001L206.076 184.48V61.4375L154.623 92.1981Z" fill="#662A5B"/>
<path d="M103.054 61.4375L51.6016 92.1982V153.719L103.054 184.48L154.639 153.719V92.1982L103.054 61.4375Z" fill="#DBDBDB"/>
<path d="M51.6016 92.3047V153.826L103.054 184.587V123.065L51.6016 92.3047Z" fill="#FCFCFC"/>
<path d="M103.039 123.065V184.587L154.623 153.826V92.3047L103.039 123.065Z" fill="#EDEDED"/>
<path d="M281.452 113.578L294.216 142.161L306.849 113.578H319.614L294.085 167.886L268.688 113.578H281.452Z" fill="black"/>
<path d="M401.169 141.879H365.902C366.165 146.099 367.481 149.365 369.85 151.815C372.218 154.265 375.113 155.49 378.798 155.49C381.561 155.49 383.93 154.81 385.772 153.449C387.615 152.088 389.72 149.502 391.957 145.69L401.564 151.271C400.116 153.857 398.537 156.171 396.826 157.94C395.115 159.846 393.405 161.343 391.562 162.568C389.72 163.793 387.615 164.61 385.509 165.154C383.272 165.699 380.903 165.971 378.403 165.971C371.034 165.971 365.244 163.521 360.77 158.621C356.296 153.721 354.059 147.188 354.059 139.157C354.059 131.127 356.164 124.594 360.507 119.694C364.849 114.794 370.639 112.344 377.745 112.344C384.983 112.344 390.641 114.794 394.852 119.558C399.063 124.321 401.169 130.855 401.169 139.293V141.879ZM389.589 132.216C388.009 125.955 384.193 122.824 378.14 122.824C376.824 122.824 375.508 123.096 374.192 123.505C373.008 123.913 371.824 124.594 370.902 125.41C369.981 126.227 369.06 127.18 368.402 128.405C367.744 129.493 367.218 130.855 366.823 132.352H389.589V132.216Z" fill="black"/>
<path d="M444.66 76.2812H455.977V117.795C460.057 113.983 464.531 112.214 469.4 112.214C474.927 112.214 479.401 114.12 482.691 117.795C485.454 121.061 486.901 126.233 486.901 133.311V164.48H475.584V134.4C475.584 130.317 474.927 127.322 473.479 125.553C472.031 123.783 469.794 122.831 466.768 122.831C462.82 122.831 460.057 124.056 458.346 126.642C456.767 129.228 455.977 133.583 455.977 139.844V164.48H444.66V76.2812V76.2812Z" fill="black"/>
<path d="M530.703 92.5016C530.703 90.46 531.361 88.6906 532.809 87.1934C534.256 85.6962 535.967 85.0156 538.072 85.0156C540.178 85.0156 541.889 85.6962 543.336 87.1934C544.784 88.6906 545.442 90.46 545.442 92.5016C545.442 94.6794 544.784 96.4488 543.336 97.946C541.889 99.4432 540.178 100.124 538.204 100.124C536.098 100.124 534.388 99.4432 532.94 97.946C531.361 96.4488 530.703 94.6794 530.703 92.5016ZM543.731 113.599V164.503H532.414V113.599H543.731Z" fill="black"/>
<path d="M627.413 115.893V131.545C624.782 128.279 622.544 125.965 620.439 124.876C618.465 123.651 616.096 122.97 613.333 122.97C609.122 122.97 605.569 124.468 602.674 127.598C599.911 130.729 598.463 134.54 598.463 139.304C598.463 144.067 599.779 148.015 602.542 151.009C605.306 154.139 608.859 155.637 613.07 155.637C615.833 155.637 618.202 155.092 620.307 153.867C622.281 152.642 624.65 150.328 627.413 146.926V162.442C622.808 164.892 618.202 166.117 613.596 166.117C605.964 166.117 599.647 163.531 594.515 158.495C589.383 153.323 586.883 147.062 586.883 139.44C586.883 131.818 589.515 125.42 594.647 120.248C599.779 115.076 606.227 112.354 613.728 112.354C618.465 112.218 623.071 113.443 627.413 115.893Z" fill="black"/>
<path d="M680.692 76.2812V164.48H669.375V76.2812H680.692Z" fill="black"/>
<path d="M770.844 141.879H735.578C735.841 146.099 737.157 149.365 739.525 151.815C741.894 154.265 744.789 155.49 748.474 155.49C751.237 155.49 753.606 154.81 755.448 153.449C757.29 152.088 759.396 149.502 761.633 145.69L771.239 151.271C769.792 153.857 768.213 156.171 766.502 157.94C764.791 159.846 763.081 161.343 761.238 162.568C759.396 163.793 757.29 164.61 755.185 165.154C752.948 165.699 750.579 165.971 748.079 165.971C740.71 165.971 734.92 163.521 730.446 158.621C725.971 153.721 723.734 147.188 723.734 139.157C723.734 131.127 725.84 124.594 730.182 119.694C734.525 114.794 740.315 112.344 747.421 112.344C754.659 112.344 760.317 114.794 764.528 119.558C768.739 124.321 770.844 130.855 770.844 139.293V141.879ZM759.264 132.216C757.685 125.955 753.869 122.824 747.816 122.824C746.5 122.824 745.184 123.096 743.868 123.505C742.684 123.913 741.499 124.594 740.578 125.41C739.525 126.227 738.736 127.18 738.078 128.405C737.42 129.493 736.894 130.855 736.499 132.352H759.264V132.216Z" fill="black"/>
<path d="M815.319 83.875H845.191C850.454 83.875 855.455 84.9639 860.061 87.1416C864.666 89.3194 868.746 92.3138 872.299 95.9887C875.852 99.6636 878.484 103.883 880.458 108.783C882.432 113.683 883.484 118.719 883.484 124.163C883.484 129.472 882.563 134.508 880.589 139.408C878.615 144.307 875.852 148.527 872.43 152.338C869.009 156.013 864.93 159.007 860.192 161.185C855.587 163.363 850.586 164.452 845.191 164.452H815.188V83.875H815.319ZM835.584 146.757H840.19C843.743 146.757 846.901 146.213 849.533 144.988C852.297 143.899 854.665 142.266 856.508 140.224C858.35 138.183 859.798 135.869 860.85 133.146C861.903 130.424 862.298 127.43 862.298 124.163C862.298 120.897 861.771 117.902 860.719 115.18C859.666 112.458 858.218 110.008 856.376 107.966C854.534 105.925 852.165 104.427 849.402 103.202C846.638 102.114 843.48 101.433 840.059 101.433H835.453V146.757H835.584Z" fill="black"/>
<path d="M992.302 164.452H967.036L947.824 133.419V164.452H927.559V83.875H959.141C963.483 83.875 967.3 84.5555 970.458 85.9166C973.748 87.2777 976.38 89.0471 978.485 91.361C980.591 93.6749 982.17 96.2609 983.222 99.2553C984.275 102.25 984.801 105.516 984.801 108.919C984.801 115.044 983.354 120.08 980.459 123.891C977.564 127.702 973.353 130.288 967.826 131.649L992.302 164.452ZM947.824 119.808H951.64C955.588 119.808 958.746 118.991 960.852 117.222C962.957 115.452 964.01 113.002 964.01 109.872C964.01 106.605 962.957 104.155 960.852 102.522C958.746 100.753 955.588 99.9359 951.64 99.9359H947.824V119.808Z" fill="black"/>
<path d="M1054.16 121.441L1029.81 83.875H1054.82L1065.34 104.7L1078.37 83.875H1103.37L1077.58 121.441L1106.66 164.452H1082.06L1066.4 138.183L1048.11 164.452H1023.63L1054.16 121.441Z" fill="black"/>
</svg>
